<svg width="20" height="16" viewBox="0 0 20 16" fill="none" xmlns="http://www.w3.org/2000/svg">
<path d="M3.29309 1.125L15.8862 14.875" stroke="#D6D6D6" stroke-width="1.5" stroke-linecap="round" stroke-linejoin="round"/>
<path d="M11.7074 10.3123C11.0895 10.8697 10.2739 11.1607 9.43994 11.1212C8.60595 11.0818 7.82191 10.7151 7.26028 10.1019C6.69864 9.48865 6.40541 8.67908 6.44509 7.85126C6.48476 7.02344 6.8541 6.24516 7.47185 5.68762" stroke="#D6D6D6" stroke-width="1.5" stroke-linecap="round" stroke-linejoin="round"/>
<path d="M5.33903 3.35889C2.13022 4.97182 0.774475 8.00001 0.774475 8.00001C0.774475 8.00001 3.29309 13.6244 9.58964 13.6244C11.0649 13.6361 12.5218 13.2988 13.8396 12.6405" stroke="#D6D6D6" stroke-width="1.5" stroke-linecap="round" stroke-linejoin="round"/>
<path d="M15.9341 11.2109C17.6501 9.68534 18.4048 8.00001 18.4048 8.00001C18.4048 8.00001 15.8862 2.3744 9.58962 2.3744C9.04428 2.37352 8.4998 2.41753 7.96179 2.50598" stroke="#D6D6D6" stroke-width="1.5" stroke-linecap="round" stroke-linejoin="round"/>
<path d="M10.1821 4.9303C10.8512 5.05784 11.4607 5.3973 11.919 5.89775C12.3773 6.3982 12.6598 7.03267 12.7241 7.70598" stroke="#D6D6D6" stroke-width="1.5" stroke-linecap="round" stroke-linejoin="round"/>
</svg>
