<svg width="184" height="30" viewBox="0 0 184 30" fill="none" xmlns="http://www.w3.org/2000/svg">
    <path d="M31.2095 1.00753V2.37327C30.716 2.49049 30.231 2.64229 29.758 2.82765C29.4882 2.94438 29.2438 3.11462 29.039 3.32841C28.8122 3.5975 28.6577 3.92179 28.5905 4.26976C28.4683 4.90698 28.4163 5.55614 28.4356 6.2051V29.2586H21.912L10.3593 13.159C8.80258 10.9808 7.6555 9.26996 6.9181 8.02649H6.67844C6.84968 10.9933 6.9353 14.125 6.9353 17.4214V24.0849C6.90395 24.8148 6.96886 25.5457 7.12826 26.258C7.24457 26.6555 7.4887 27.0016 7.82142 27.2407C8.40589 27.5746 9.04588 27.7957 9.70918 27.8929V29.2586H0V27.8816C0.514 27.78 1.01701 27.6274 1.50185 27.426C1.83495 27.2893 2.12099 27.0554 2.32406 26.7537C2.51741 26.4296 2.63592 26.0649 2.67063 25.6872C2.72785 25.1514 2.75371 24.6126 2.74807 24.0736V6.17255C2.77632 5.45436 2.7202 4.73527 2.58092 4.03065C2.46552 3.63238 2.22068 3.28591 1.88654 3.048C1.30689 2.69854 0.666223 2.46683 0 2.36574V1H10.4023L19.497 13.7248C20.0624 14.5243 20.7998 15.6092 21.7092 16.9795C22.6187 18.3499 23.4233 19.6397 24.123 20.8489H24.5347C24.3455 17.5516 24.2508 13.951 24.2508 10.0469V6.19758C24.2712 5.54662 24.23 4.89515 24.1279 4.25222C24.0726 3.91954 23.9356 3.60651 23.7297 3.34216C23.5288 3.11979 23.2837 2.94355 23.0108 2.82517C22.5243 2.62868 22.0217 2.4766 21.5089 2.37075V1.005L31.2095 1.00753Z" fill="#666666"/>
    <path d="M49.3226 8.40702V13.2641H47.3095C47.1092 12.5804 46.8329 11.9223 46.4861 11.3025C46.2767 10.9769 46.0014 10.7008 45.6786 10.4925C45.1799 10.2554 44.6297 10.1528 44.0809 10.1946H40.8756V17.529H42.815C43.1626 17.5458 43.5092 17.4802 43.8277 17.3375C44.0911 17.195 44.3055 16.974 44.4422 16.7041C44.6535 16.267 44.8092 15.8043 44.9056 15.3271H46.566V21.5274H44.9056C44.8107 21.0589 44.6579 20.6047 44.4508 20.1754C44.3176 19.9018 44.1115 19.6719 43.856 19.5119C43.532 19.3598 43.1761 19.2914 42.8199 19.3129H40.8756V27.4673H44.0637C44.3544 27.4719 44.6448 27.4493 44.9314 27.3997C45.1538 27.358 45.3675 27.2775 45.5631 27.1618C45.763 27.0375 45.9436 26.8835 46.0989 26.7049C46.2697 26.5114 46.422 26.3018 46.5537 26.079C46.7148 25.7952 46.8545 25.4993 46.9715 25.1939C47.1605 24.6993 47.3226 24.1945 47.457 23.6818H49.4701L49.1911 29.2561H34.7478V28.2484C35.0457 28.1722 35.3343 28.0622 35.6081 27.9204C35.8109 27.8113 35.9754 27.6407 36.0788 27.4322C36.192 27.1818 36.259 26.9124 36.2767 26.6373C36.3054 26.3168 36.3201 25.9125 36.3209 25.4243V12.2551C36.3209 11.7756 36.3086 11.3788 36.2841 11.0483C36.2718 10.7732 36.2067 10.5031 36.0923 10.2534C35.9862 10.0442 35.8232 9.87035 35.6229 9.75271C35.3473 9.59962 35.053 9.48431 34.7478 9.40973V8.40076L49.3226 8.40702Z" fill="#666666"/>
    <path d="M65.0736 12.2401C65.0895 11.7063 65.0578 11.1721 64.979 10.644C64.9302 10.3699 64.8017 10.117 64.6103 9.91799C64.2893 9.66983 63.9175 9.49863 63.5226 9.41723V8.40827H69.9872V9.41723C69.6968 9.4937 69.416 9.60377 69.1502 9.74524C68.9492 9.85671 68.7853 10.0267 68.6795 10.2334C68.5606 10.4822 68.4905 10.7522 68.473 11.0284C68.4444 11.348 68.4296 11.7523 68.4288 12.2414V21.7852C68.4481 22.8493 68.3496 23.9121 68.1351 24.9536C67.9742 25.7233 67.6646 26.4526 67.2244 27.0992C66.8183 27.6748 66.2946 28.154 65.6893 28.5038C65.0467 28.8719 64.3492 29.1303 63.6246 29.2686C62.7767 29.4283 61.9157 29.5046 61.0535 29.4965C59.8625 29.5232 58.6741 29.3718 57.5262 29.0471C56.6479 28.7952 55.8433 28.3285 55.1825 27.6876C54.5725 27.0699 54.1143 26.3141 53.8453 25.4819C53.5258 24.3978 53.3793 23.2684 53.4115 22.137V12.2564C53.4115 11.7769 53.398 11.3801 53.3746 11.0496C53.3624 10.7744 53.2972 10.5044 53.1829 10.2547C53.0766 10.0451 52.9132 9.87128 52.7122 9.75399C52.4371 9.6008 52.1433 9.48547 51.8384 9.41101V8.40204H59.5516V9.41101C59.2399 9.48548 58.9405 9.60608 58.6631 9.769C58.4826 9.88491 58.3334 10.045 58.2292 10.2347C58.1188 10.4593 58.0488 10.7022 58.0228 10.952C57.9766 11.383 57.9569 11.8166 57.9638 12.2501V22.3286C57.9591 23.0644 58.0084 23.7996 58.1113 24.528C58.1877 25.1237 58.3692 25.7005 58.6471 26.2305C58.8961 26.693 59.2713 27.0722 59.7274 27.3221C60.2805 27.5954 60.8916 27.7245 61.5058 27.6976C62.299 27.7598 63.0886 27.5385 63.7389 27.0717C64.2544 26.6113 64.6161 25.9987 64.7737 25.3191C65.0096 24.2191 65.1108 23.0934 65.0748 21.968L65.0736 12.2401Z" fill="#666666"/>
    <path d="M80.1942 29.2524H72.481V28.2447C72.7789 28.1687 73.0675 28.0587 73.3413 27.9167C73.5444 27.8081 73.709 27.6373 73.812 27.4285C73.926 27.1783 73.9935 26.9088 74.0111 26.6336C74.0398 26.3131 74.0545 25.9087 74.0553 25.4205V12.2551C74.0553 11.7757 74.043 11.3789 74.0185 11.0484C74.0062 10.7732 73.9411 10.5031 73.8267 10.2535C73.7204 10.0439 73.557 9.87003 73.356 9.75274C73.0809 9.59955 72.7871 9.48422 72.4822 9.40976V8.40079H81.0484C82.0373 8.38534 83.0253 8.46918 83.998 8.65113C84.7401 8.79616 85.4559 9.05622 86.1205 9.42225C86.6141 9.69509 87.0528 10.0604 87.4134 10.4988C87.774 10.9478 88.0506 11.4604 88.2295 12.011C88.4305 12.6586 88.5272 13.3349 88.5159 14.0139C88.5389 14.897 88.3654 15.7739 88.0083 16.5789C87.6889 17.2684 87.2219 17.8762 86.6416 18.3578C85.9391 18.9086 85.1653 19.3581 84.3421 19.6935V19.8474C85.028 20.1449 85.6423 20.5903 86.1426 21.1531C86.6666 21.7763 87.0996 22.4732 87.4282 23.2224L88.3536 25.2991C88.6617 26.051 89.0758 26.7532 89.5826 27.3834C89.9555 27.8268 90.4666 28.126 91.0304 28.2309V29.2386H85.377C84.6286 28.0905 83.9844 26.8754 83.4523 25.6083L82.3057 22.997C82.0694 22.4172 81.7741 21.8642 81.4245 21.3471C81.2292 21.0645 80.9699 20.8339 80.6686 20.6749C80.2859 20.5318 79.8786 20.4696 79.4716 20.4921H78.6199V25.4155C78.603 25.9517 78.6371 26.4884 78.7219 27.0179C78.7764 27.298 78.9152 27.5539 79.1188 27.7502C79.4408 27.9933 79.812 28.16 80.2053 28.2384L80.1942 29.2524ZM78.6076 10.2247V18.7158H80.0615C80.7229 18.7377 81.382 18.6263 82.0009 18.3878C82.4764 18.1948 82.8945 17.879 83.2139 17.4715C83.518 17.0655 83.7281 16.5948 83.8284 16.0945C83.945 15.5218 84.0014 14.9381 83.9968 14.3532C84.0807 13.2314 83.7449 12.1187 83.0566 11.2387C82.6902 10.8741 82.2518 10.593 81.7706 10.4141C81.2894 10.2352 80.7764 10.1625 80.2655 10.2009C79.424 10.1967 78.871 10.2047 78.6064 10.2247H78.6076Z" fill="#666666"/>
    <path d="M100.513 29.4977C99.3074 29.5882 98.0969 29.3986 96.9732 28.9433C95.8496 28.4879 94.8421 27.7786 94.0267 26.8689C92.5822 25.1164 91.86 22.4951 91.86 19.005C91.8077 16.9947 92.1651 14.9952 92.9096 13.1327C93.5347 11.599 94.6161 10.3035 96.0018 9.42855C97.4756 8.55362 99.1597 8.11448 100.865 8.16045C102.087 8.06822 103.314 8.25564 104.455 8.709C105.597 9.16236 106.624 9.87014 107.462 10.7805C108.931 12.5264 109.666 15.1197 109.666 18.5606C109.699 20.237 109.479 21.9086 109.012 23.5166C108.644 24.7739 108.009 25.9336 107.153 26.914C106.359 27.7932 105.369 28.4637 104.266 28.8681C103.061 29.3012 101.791 29.5143 100.513 29.4977ZM96.5327 18.5944C96.4065 20.9337 96.7697 23.2737 97.5982 25.4594C97.8502 26.1283 98.2971 26.7027 98.8788 27.1055C99.4605 27.5082 100.149 27.7201 100.853 27.7127C101.546 27.7332 102.226 27.5094 102.776 27.0792C103.343 26.607 103.785 25.9982 104.062 25.3079C104.417 24.4466 104.654 23.5398 104.767 22.6127C104.915 21.4786 104.986 20.3355 104.98 19.1915C105.01 17.4814 104.855 15.7731 104.516 14.0978C104.315 12.9612 103.835 11.8949 103.12 10.9983C102.821 10.6574 102.452 10.3871 102.04 10.2063C101.627 10.0256 101.181 9.93872 100.732 9.95181C100.057 9.93939 99.3938 10.1346 98.8293 10.512C98.2647 10.8894 97.825 11.4315 97.5675 12.0674C96.76 14.1399 96.4068 16.3671 96.5327 18.5931V18.5944Z" fill="#666666"/>
    <path d="M130.442 8.40704V9.41601C130.157 9.50402 129.88 9.61621 129.613 9.75147C129.452 9.84301 129.312 9.96797 129.201 10.1182C129.067 10.3281 128.979 10.5652 128.944 10.813C128.875 11.2857 128.845 11.7636 128.857 12.2414V29.2536H125.124L118.512 17.3726C117.621 15.7644 116.965 14.5022 116.546 13.5858H116.414C116.512 15.7748 116.561 18.0861 116.561 20.5197V25.4368C116.543 25.9738 116.58 26.5112 116.671 27.0404C116.729 27.3175 116.867 27.5706 117.068 27.7665C117.389 28.0057 117.758 28.1698 118.149 28.2472V29.2549H112.595V28.2472C112.894 28.1715 113.183 28.0588 113.455 27.9117C113.658 27.7975 113.822 27.6228 113.926 27.411C114.039 27.1639 114.106 26.8979 114.125 26.626C114.153 26.3106 114.168 25.9133 114.169 25.4343V12.2251C114.185 11.6962 114.153 11.1669 114.073 10.644C114.016 10.3666 113.878 10.1134 113.676 9.91799C113.359 9.66875 112.99 9.49736 112.597 9.41723V8.40826H118.548L123.749 17.7969C124.077 18.3878 124.498 19.1865 125.014 20.1929C125.529 21.1994 125.99 22.1516 126.395 23.0496H126.63C126.522 20.6161 126.468 17.9588 126.469 15.078V12.2376C126.479 11.7578 126.455 11.2778 126.395 10.8018C126.366 10.5642 126.288 10.3356 126.167 10.1308C126.06 9.97345 125.919 9.84256 125.756 9.74772C125.482 9.60562 125.193 9.49317 124.896 9.41223V8.40326L130.442 8.40704Z" fill="#666666"/>
    <path d="M134.91 24.1061C135.058 25.1106 135.484 26.0513 136.139 26.8176C136.477 27.1328 136.875 27.3745 137.308 27.528C137.741 27.6814 138.201 27.7434 138.658 27.7101C139.193 27.7194 139.723 27.6159 140.216 27.406C140.676 27.2013 141.062 26.8572 141.322 26.4207C141.618 25.9047 141.762 25.3138 141.74 24.717C141.754 24.1506 141.638 23.5888 141.401 23.0759C141.135 22.5623 140.764 22.1122 140.315 21.7552C139.664 21.2415 138.964 20.7965 138.225 20.427C137.51 20.0596 136.819 19.6465 136.155 19.1902C135.569 18.7917 135.038 18.317 134.574 17.7782C134.146 17.2773 133.804 16.7069 133.561 16.0907C133.313 15.4333 133.191 14.7334 133.201 14.029C133.167 12.8963 133.48 11.7809 134.097 10.8381C134.745 9.92283 135.649 9.22787 136.69 8.84393C137.948 8.36807 139.282 8.13748 140.623 8.16419C141.458 8.16211 142.292 8.21102 143.121 8.31066C144.035 8.42924 144.943 8.59974 145.839 8.82139V13.2466H143.826C143.69 12.5731 143.45 11.9261 143.113 11.33C142.855 10.8863 142.482 10.524 142.034 10.2835C141.541 10.0671 141.01 9.95295 140.473 9.94779C139.935 9.94263 139.402 10.0466 138.905 10.2535C138.478 10.4462 138.115 10.7621 137.862 11.1623C137.597 11.5999 137.464 12.1069 137.479 12.6207C137.466 13.152 137.58 13.6786 137.81 14.1554C138.086 14.6536 138.463 15.0859 138.916 15.4235C139.629 15.9589 140.386 16.4313 141.179 16.8356C142.197 17.3601 143.151 18.0037 144.023 18.7533C144.684 19.3143 145.21 20.0226 145.56 20.8235C145.91 21.6244 146.075 22.4965 146.042 23.3726C146.069 24.5162 145.778 25.6444 145.204 26.6273C144.623 27.5729 143.772 28.3154 142.765 28.7554C141.598 29.27 140.335 29.5228 139.064 29.4965C138.021 29.4941 136.979 29.4357 135.942 29.3212C134.916 29.2138 133.898 29.0428 132.893 28.8092V24.1049L134.91 24.1061Z" fill="#666666"/>
    <path d="M151.039 2.10352V10.9365L149.571 11.3496L149.501 12H154.256L154.37 11.2969L152.753 10.998V6.82324H158.264V10.9365L156.805 11.3496L156.717 12H161.489L161.577 11.2969L159.978 10.998V2.06836L161.445 1.73438L161.551 1.06641H156.752L156.655 1.73438L158.264 2.10352V5.91797H152.753V2.06836L154.229 1.73438L154.317 1.06641H149.536L149.439 1.73438L151.039 2.10352ZM163.256 7.87793C163.256 9.54785 163.66 10.6934 164.469 11.3145C165.283 11.9297 166.317 12.2373 167.571 12.2373C169.077 12.2373 170.185 11.8447 170.894 11.0596C171.603 10.2744 171.963 9.0791 171.975 7.47363L172.019 2.06836L173.478 1.73438L173.574 1.06641H169.373L169.285 1.73438L170.894 2.10352L170.867 7.76367C170.861 8.88281 170.612 9.71484 170.12 10.2598C169.628 10.8047 168.925 11.0771 168.011 11.0771C167.067 11.0771 166.32 10.7871 165.77 10.207C165.225 9.62109 164.952 8.72461 164.952 7.51758V2.06836L166.438 1.73438L166.517 1.06641H161.753L161.639 1.73438L163.256 2.10352V7.87793ZM178.479 12C179.592 12 180.497 11.8447 181.194 11.5342C181.892 11.2178 182.393 10.8105 182.697 10.3125C183.002 9.80859 183.154 9.25781 183.154 8.66016C183.154 8.25586 183.049 7.86328 182.838 7.48242C182.627 7.10156 182.316 6.78223 181.906 6.52441C181.496 6.2666 181.004 6.12305 180.43 6.09375V6.03223C181.062 5.80371 181.522 5.45801 181.81 4.99512C182.097 4.52637 182.24 4.02832 182.24 3.50098C182.24 3.03809 182.103 2.61328 181.827 2.22656C181.558 1.83984 181.136 1.53223 180.562 1.30371C179.987 1.06934 179.267 0.952148 178.399 0.952148C177.714 0.952148 177.046 0.987305 176.396 1.05762C175.751 1.12793 174.978 1.22754 174.075 1.35645L173.987 2.0332L175.49 2.29688V10.9365L174.022 11.3496L173.926 12H178.479ZM177.178 1.76953C177.453 1.72852 177.688 1.70801 177.881 1.70801C178.854 1.70801 179.548 1.93066 179.964 2.37598C180.38 2.82129 180.588 3.36621 180.588 4.01074C180.588 4.50879 180.491 4.91895 180.298 5.24121C180.11 5.55762 179.826 5.79492 179.445 5.95312H177.178V1.76953ZM179.138 6.68262C179.624 6.68262 180.04 6.79395 180.386 7.0166C180.731 7.2334 180.992 7.51465 181.168 7.86035C181.344 8.20605 181.432 8.56934 181.432 8.9502C181.432 9.33691 181.341 9.7002 181.159 10.04C180.983 10.374 180.72 10.6436 180.368 10.8486C180.017 11.0537 179.598 11.1562 179.111 11.1562H177.178V6.68262H179.138Z" fill="#666666"/>
</svg>

