<svg width="20" height="14" viewBox="0 0 20 14" fill="none" xmlns="http://www.w3.org/2000/svg">
<path d="M11.7074 9.31228C11.0895 9.86971 10.2739 10.1607 9.43994 10.1212C8.60595 10.0818 7.82191 9.71511 7.26028 9.10188C6.69864 8.48865 6.40541 7.67908 6.44509 6.85126C6.48476 6.02344 6.8541 5.24516 7.47185 4.68762" stroke="#423d55" stroke-width="1.5" stroke-linecap="round" stroke-linejoin="round"/>
<path d="M5.33903 2.35889C2.13022 3.97182 0.774475 7.00001 0.774475 7.00001C0.774475 7.00001 3.29309 12.6244 9.58964 12.6244C11.0649 12.6361 12.5218 12.2988 13.8396 11.6405" stroke="#423d55" stroke-width="1.5" stroke-linecap="round" stroke-linejoin="round"/>
<path d="M15.9341 10.2109C17.6501 8.68534 18.4048 7.00001 18.4048 7.00001C18.4048 7.00001 15.8862 1.3744 9.58962 1.3744C9.04428 1.37352 8.4998 1.41753 7.96179 1.50598" stroke="#423d55" stroke-width="1.5" stroke-linecap="round" stroke-linejoin="round"/>
<path d="M10.1821 3.9303C10.8512 4.05784 11.4607 4.3973 11.919 4.89775C12.3773 5.3982 12.6598 6.03267 12.7241 6.70598" stroke="#423d55" stroke-width="1.5" stroke-linecap="round" stroke-linejoin="round"/>
</svg>
