<svg width="514" height="307" viewBox="0 0 514 307" fill="none" xmlns="http://www.w3.org/2000/svg">
    <g clip-path="url(#clip0)">
        <path d="M393.53 303.528C386.95 297.973 382.953 289.198 384.001 280.655C385.049 272.112 391.542 264.258 399.964 262.444C408.385 260.63 417.986 265.652 420.544 273.871C421.951 258.025 423.574 241.516 432.006 228.022C439.642 215.804 452.867 207.061 467.2 205.497C481.533 203.933 496.623 209.84 505.562 221.142C514.501 232.444 516.69 248.874 510.429 261.849C505.817 271.408 497.321 278.521 488.418 284.308C459.65 302.851 425.148 310.392 391.258 305.543L393.53 303.528Z" fill="#F2F2F2"/>
        <path d="M491.389 210.167C479.562 219.791 468.713 230.554 458.997 242.301C443.792 260.622 431.488 281.163 422.514 303.209C421.857 304.817 424.471 305.517 425.121 303.927C439.804 268.098 463.245 236.518 493.3 212.077C494.65 210.979 492.727 209.079 491.389 210.167Z" fill="white"/>
        <path d="M165.465 302.019C174.503 294.389 179.993 282.336 178.554 270.602C177.114 258.869 168.196 248.082 156.629 245.59C145.062 243.098 131.876 249.996 128.363 261.284C126.429 239.52 124.201 216.845 112.619 198.311C102.131 181.529 83.9665 169.521 64.2802 167.373C44.594 165.224 23.8669 173.338 11.5893 188.861C-0.688344 204.384 -3.69446 226.951 4.90445 244.773C11.239 257.901 22.9094 267.672 35.1371 275.62C74.1476 300.98 122.54 311.556 168.586 304.786" fill="#F2F2F2"/>
        <path d="M31.0566 173.788C47.3002 187.005 62.202 201.788 75.5465 217.923C88.893 234.041 100.643 251.414 110.632 269.798C116.215 280.111 121.231 290.721 125.656 301.58C126.559 303.789 122.968 304.75 122.076 302.566C114.237 283.422 104.539 265.091 93.1212 247.836C81.7586 230.644 68.7534 214.594 54.2884 199.911C46.107 191.61 37.4748 183.765 28.4311 176.411C26.5774 174.903 29.2182 172.292 31.0566 173.788L31.0566 173.788Z" fill="white"/>
        <path d="M368.957 306.328H153.314V85.2879C153.314 38.2599 191.611 0 238.685 0H283.586C330.66 0 368.957 38.2599 368.957 85.2879V306.328Z" fill="#F2F2F2"/>
        <path d="M324.056 306.328H153.314V85.2879C153.267 67.2678 158.978 49.7032 169.617 35.1514C170.01 34.6174 170.401 34.0903 170.804 33.5689C175.95 26.8262 182.074 20.888 188.974 15.9503C189.364 15.667 189.755 15.3886 190.152 15.1102C195.926 11.1187 202.171 7.85579 208.746 5.39564C209.136 5.24779 209.534 5.09966 209.931 4.95757C215.878 2.83752 222.042 1.38529 228.31 0.627707C228.699 0.574675 229.098 0.533177 229.497 0.491678C235.605 -0.1608 241.766 -0.1608 247.874 0.491678C248.272 0.533177 248.671 0.57467 249.064 0.628275C255.331 1.38591 261.493 2.83796 267.438 4.9576C267.836 5.09968 268.234 5.24781 268.625 5.39594C275.119 7.82506 281.291 11.0393 287.003 14.967C287.4 15.2393 287.797 15.5177 288.188 15.7961C292.056 18.5541 295.689 21.6266 299.05 24.9824C301.745 27.6741 304.256 30.5433 306.567 33.5707C306.969 34.0903 307.36 34.6174 307.752 35.1506C318.391 49.7025 324.103 67.2675 324.056 85.2879V306.328Z" fill="#CECCE1"/>
        <path d="M310.172 207.465C315.393 207.465 319.625 203.237 319.625 198.021C319.625 192.806 315.393 188.578 310.172 188.578C304.952 188.578 300.719 192.806 300.719 198.021C300.719 203.237 304.952 207.465 310.172 207.465Z" fill="#3F3D56"/>
        <path d="M351.292 299.707H344.049L340.602 271.797L351.293 271.797L351.292 299.707Z" fill="#FFB8B8"/>
        <path d="M338.875 297.64H352.844V306.426H330.079C330.079 305.272 330.307 304.13 330.749 303.064C331.191 301.998 331.839 301.029 332.656 300.213C333.472 299.397 334.442 298.75 335.509 298.308C336.576 297.867 337.72 297.64 338.875 297.64Z" fill="#2F2E41"/>
        <path d="M387.331 299.707H380.088L376.642 271.797L387.332 271.797L387.331 299.707Z" fill="#FFB8B8"/>
        <path d="M374.914 297.64H388.883V306.426H366.119C366.119 305.272 366.346 304.13 366.788 303.064C367.23 301.998 367.878 301.029 368.695 300.213C369.511 299.397 370.481 298.75 371.548 298.308C372.615 297.867 373.759 297.64 374.914 297.64Z" fill="#2F2E41"/>
        <path d="M314.957 199.892C314.435 199.125 314.089 198.253 313.942 197.338C313.794 196.423 313.85 195.487 314.104 194.595C314.358 193.704 314.804 192.879 315.412 192.178C316.02 191.478 316.774 190.919 317.621 190.541L342.244 122.744L354.359 129.349L326.246 194.139C326.787 195.603 326.771 197.214 326.203 198.668C325.634 200.121 324.551 201.316 323.159 202.025C321.768 202.734 320.164 202.909 318.652 202.516C317.14 202.123 315.825 201.189 314.957 199.892Z" fill="#FFB8B8"/>
        <path d="M383.631 212.632C382.826 212.171 382.132 211.539 381.598 210.781C381.064 210.023 380.703 209.157 380.54 208.244C380.377 207.332 380.416 206.395 380.655 205.499C380.894 204.603 381.326 203.771 381.922 203.06L374.294 131.342L388.082 131.971L391.252 202.515C392.381 203.594 393.074 205.049 393.201 206.605C393.328 208.16 392.879 209.708 391.939 210.955C391 212.202 389.635 213.062 388.104 213.371C386.573 213.679 384.981 213.417 383.631 212.632Z" fill="#FFB8B8"/>
        <path d="M361.635 110.186C369.649 110.186 376.146 103.695 376.146 95.6892C376.146 87.683 369.649 81.1926 361.635 81.1926C353.621 81.1926 347.124 87.683 347.124 95.6892C347.124 103.695 353.621 110.186 361.635 110.186Z" fill="#FFB8B8"/>
        <path d="M383.538 196.321H339.791L339.844 195.981C339.922 195.472 347.64 144.962 341.948 128.437C341.377 126.813 341.427 125.036 342.089 123.447C342.751 121.858 343.978 120.569 345.534 119.83H345.534C353.67 116.002 369.289 111.288 382.471 122.727C384.411 124.438 385.926 126.577 386.896 128.973C387.866 131.37 388.264 133.959 388.06 136.536L383.538 196.321Z" fill="#3F3D56"/>
        <path d="M348.193 152.427L328.498 148.435L337.73 126.579C338.282 124.462 339.653 122.65 341.54 121.541C343.428 120.433 345.679 120.117 347.799 120.664C349.919 121.211 351.736 122.575 352.85 124.458C353.965 126.341 354.286 128.589 353.744 130.709L348.193 152.427Z" fill="#3F3D56"/>
        <path d="M373.418 159.838L372.234 132.722C371.336 127.625 374.257 122.806 378.749 122.019C383.243 121.234 387.63 124.769 388.532 129.904L392.983 155.241L373.418 159.838Z" fill="#3F3D56"/>
        <path d="M382.083 193.074C389.122 219.857 389.89 253.909 387.991 291.052L378.538 289.872L361.405 219.044L351.952 291.052L341.317 290.462C338.14 251.489 335.047 218.032 340.136 196.025L382.083 193.074Z" fill="#2F2E41"/>
        <path d="M371.196 106.893C368.489 109.773 363.462 108.227 363.109 104.291C363.081 103.986 363.083 103.678 363.115 103.373C363.297 101.63 364.305 100.047 364.064 98.2065C364.009 97.7484 363.838 97.3118 363.567 96.9381C361.41 94.0523 356.346 98.2289 354.311 95.6164C353.062 94.0146 354.53 91.4924 353.572 89.7021C352.307 87.339 348.562 88.5047 346.214 87.2106C343.601 85.7708 343.757 81.7656 345.477 79.3295C347.575 76.3585 351.253 74.7732 354.885 74.5447C358.517 74.3163 362.124 75.2971 365.515 76.6173C369.367 78.1173 373.188 80.1902 375.559 83.5746C378.442 87.6904 378.719 93.2236 377.277 98.0362C376.4 100.964 373.407 104.54 371.196 106.893Z" fill="#2F2E41"/>
        <path d="M496.265 306.708H60.0775C59.8913 306.707 59.7129 306.633 59.5814 306.501C59.4499 306.369 59.3761 306.191 59.3761 306.005C59.3761 305.819 59.4499 305.641 59.5814 305.509C59.7129 305.377 59.8913 305.303 60.0775 305.302H496.265C496.451 305.303 496.63 305.377 496.761 305.509C496.893 305.641 496.966 305.819 496.966 306.005C496.966 306.191 496.893 306.369 496.761 306.501C496.63 306.633 496.451 306.707 496.265 306.708Z" fill="#3F3D56"/>
        <path d="M277.087 242.288H200.283C199.271 242.294 198.299 241.898 197.579 241.188C196.859 240.478 196.45 239.512 196.443 238.502V67.2359C196.45 66.2254 196.859 65.2592 197.579 64.5494C198.299 63.8395 199.271 63.444 200.283 63.4494H277.087C278.099 63.444 279.071 63.8395 279.791 64.5494C280.511 65.2592 280.92 66.2254 280.928 67.2359V238.502C280.92 239.512 280.511 240.478 279.791 241.188C279.071 241.898 278.099 242.294 277.087 242.288Z" fill="white"/>
        <path d="M280.928 118.866H196.443V120.046H280.928V118.866Z" fill="#CCCCCC"/>
        <path d="M281.223 186.217H196.738V187.397H281.223V186.217Z" fill="#CCCCCC"/>
        <path d="M224.21 63.4495H223.029V242.879H224.21V63.4495Z" fill="#CCCCCC"/>
        <path d="M253.75 63.4495H252.569V242.879H253.75V63.4495Z" fill="#CCCCCC"/>
    </g>
<defs>
    <clipPath id="clip0">
    <rect width="514" height="307" fill="white"/>
    </clipPath>
</defs>
</svg>


